Simulation
nRows=42
nColumns=15
endheader
time  TH_x TH_y TH_z SC_y  SC_z  SC_x  AC_y  AC_z  AC_x  GH_y  GH_z  GH_yy  EL_x  PS_y
2.3499999999999996  0.000000  0.000000  0.000000  -56.536518386861346  10.591859562815877  -4.062523812670765  71.19753311409742  36.764796981455774  31.305634266701215  21.62277821981911  34.6673142051695  -37.414273704455105  98.42619201523983  120.000000
2.397  0.000000  0.000000  0.000000  -56.11252888108777  15.903094049762684  -18.105098141974977  84.12132425032046  37.869835416501935  42.064164005394424  20.121167978967698  41.749120168292734  -43.26204957486974  95.68879151816334  120.000000
2.4439999999999995  0.000000  0.000000  0.000000  -55.638313244029106  22.64531908365065  -28.7861227111559  79.97168085515005  44.811133183204184  53.38454568551763  24.639110468799185  40.404961441928954  -57.164168611775764  90.77090949620987  120.000000
2.4909999999999997  0.000000  0.000000  0.000000  -46.22405111788346  27.996025688003826  -24.990425514011612  49.14512533125191  43.787612347177436  53.72792508595836  46.53433778348913  30.14738122984243  -78.73297343714609  88.48349680560337  120.000000
2.538  0.000000  0.000000  0.000000  -38.15142692580938  29.65609299551553  1.3784251485935501  16.8342644044363  11.777775546564955  40.43334205191043  89.4401174767659  12.687404740678465  -98.13459158914733  92.24827526631955  120.000000
2.5849999999999995  0.000000  0.000000  0.000000  -42.409757911184606  33.834352713839316  36.10207397794825  11.464232770510566  -14.244791728097226  27.672769310821078  128.68794339686875  -12.28581719792166  -114.2288350521723  94.29186696446385  120.000000
2.6319999999999997  0.000000  0.000000  0.000000  -49.237766933212136  39.770049406650955  49.33908341440233  17.433230649399505  -17.763137141396736  26.46580598715612  144.73242826738158  -24.577286816824564  -127.28895955341521  97.15560760211127  120.000000
2.679  0.000000  0.000000  0.000000  -49.95964752976263  41.18455626318933  41.791109894834676  17.305891787008647  -16.006725621605607  31.648817876625554  143.03767421683781  -17.116317914475328  -131.4802082574487  101.8876217446551  120.000000
2.7259999999999995  0.000000  0.000000  0.000000  -49.40254488844384  40.4018615950787  30.96215656650332  18.564961138307236  -10.80683221332597  39.34093131918772  133.31353466133712  -3.4455412058782704  -127.5926459304416  105.44517693946813  120.000000
2.7729999999999997  0.000000  0.000000  0.000000  -48.83260497785201  39.29847300222928  18.28137482935485  18.5039171810287  -6.196381566146708  47.79708664960916  120.22355800995035  11.007043381692531  -117.12960227377054  109.27281984552586  120.000000
2.8199999999999994  0.000000  0.000000  0.000000  -47.994371091915916  38.8562206850738  5.8752286917831995  17.14622563486744  -1.1755928888185116  56.74575550463049  107.37171171580336  23.612792358408345  -103.92675547547036  110.86559939186783  120.000000
2.8669999999999995  0.000000  0.000000  0.000000  -47.6400049907633  38.10452452630612  -4.134950698172095  16.267542517367684  2.5195682341042938  65.28183157084814  97.42406357514157  33.12955693605307  -92.55433585048692  111.39995251738358  120.000000
2.9139999999999997  0.000000  0.000000  0.000000  -46.09630987611088  37.087131214143184  -12.39644877690512  14.72339889242953  5.381753649651136  71.77471704946315  92.7336771330191  37.60796831922957  -85.85746217274728  111.02739651037672  120.000000
2.9609999999999994  0.000000  0.000000  0.000000  -45.29924934326567  36.134588787559984  -18.284564576623634  13.571861946720148  7.1773894012380195  75.99092452834027  94.4243071246838  37.173952828660106  -85.2494759889586  109.10511736420366  120.000000
3.0079999999999996  0.000000  0.000000  0.000000  -43.650357173088366  35.222779864237076  -21.735335041886472  13.299125701513573  7.920488264589345  78.33193916596693  102.64653792555845  30.95641687325478  -92.26901917412494  105.9773730688736  120.000000
3.0549999999999997  0.000000  0.000000  0.000000  -42.73565680904961  34.80523159875688  -22.1335965541616  15.989679518918898  8.040543153302982  80.07915350534176  115.41081730524323  19.867288897744192  -107.53687090790213  101.61727176233859  120.000000
3.1019999999999994  0.000000  0.000000  0.000000  -43.5473277644812  37.13822206453029  -18.457833382173767  21.904784648853934  7.419623474107095  83.8075120015238  129.84258315366915  5.00067089198894  -130.39949334004461  97.45003913109268  120.000000
3.1489999999999996  0.000000  0.000000  0.000000  -47.5337974411807  41.09684722384302  -9.647009651747515  31.476867211931793  6.853218086626309  88.8733850821249  144.89208499389815  -15.29681976345024  -157.88736826907322  97.2736572176668  120.000000
3.1959999999999997  0.000000  0.000000  0.000000  -46.19879598604238  37.94584861360458  3.2722622824520022  42.39612569120546  3.886793639328072  95.93957527403603  152.47917448573844  -32.21781050641967  -189.33652742519004  94.69250418769822  120.000000
3.2429999999999994  0.000000  0.000000  0.000000  -38.00444072272474  31.301351096026785  17.98198717022724  45.9222850568494  0.6378122789832515  95.20242748900057  137.37511140542915  -29.01216222257027  -227.5508401005413  85.83515073679688  120.000000
3.2899999999999996  0.000000  0.000000  0.000000  -45.147302056141534  32.218861488918805  36.02670289322831  49.85011513211331  9.058550346643093  71.7520467702779  106.75130939109354  -4.493314559676353  -262.9750680809819  78.05920946589575  120.000000
3.3369999999999993  0.000000  0.000000  0.000000  -66.56731641580394  28.11412289839803  50.5918977301618  62.27113578803001  18.669924815487587  43.37233323236927  97.4169867376298  17.130690044444936  -267.3465713876883  77.8749930851406  120.000000
3.3839999999999995  0.000000  0.000000  0.000000  -79.46517184334215  14.791596236374422  56.30814111540156  68.39769603364769  9.281994180175548  27.52663382580017  118.04546887371774  13.178236972216144  -238.58952463440653  86.61024497122017  120.000000
3.4309999999999996  0.000000  0.000000  0.000000  -78.86370731781093  8.880104133506427  64.04570515674524  65.91878698459281  -9.048114712317552  11.26244562764206  139.2849751046354  -2.8891773312952975  -207.80560797937335  96.5901770193082  120.000000
3.4779999999999993  0.000000  0.000000  0.000000  -69.57604398630026  11.178539655971276  79.9648278485332  57.88378717002506  -24.14382669713257  -9.046545224814858  149.464734038404  -13.105476867884382  -185.29422895408177  100.8963927016571  120.000000
3.5249999999999995  0.000000  0.000000  0.000000  -58.17672081254081  14.414530058673593  98.82740235672505  44.49301019820774  -38.45848435610172  -25.30424321759168  150.35297632469013  -17.220629362457935  -167.3107170063995  101.06465668575113  120.000000
3.5719999999999996  0.000000  0.000000  0.000000  -50.91893719348977  16.850242739593718  113.5671462380412  32.25424122196916  -49.47236028575441  -36.88367485234404  143.7271910557998  -13.960967909247323  -151.42075791326158  101.49972856505097  120.000000
3.6189999999999993  0.000000  0.000000  0.000000  -49.30367266325395  18.109826309227245  122.01798837782526  22.91371633649413  -54.09326342570165  -46.064319250655686  134.03184354072891  -5.439818511970967  -134.12468392647025  104.13679644687194  120.000000
3.6659999999999995  0.000000  0.000000  0.000000  -50.5309235652108  17.211019193355934  126.1616682934931  17.31864608088736  -54.30383202936856  -54.85999105230402  122.10565990140594  3.5180907875879073  -116.65525081932054  108.22597585716994  120.000000
3.7129999999999996  0.000000  0.000000  0.000000  -51.14600193373471  15.42799595298747  126.78197032925164  15.210156130681725  -53.16270915263716  -62.60893430385577  109.16924103231312  10.900723581245586  -100.20735403222551  111.29645285515333  120.000000
3.7599999999999993  0.000000  0.000000  0.000000  -50.98303677248764  13.712459281547526  124.23957677272966  14.640890915106029  -52.57398112491788  -67.59320431308387  96.88214675917209  16.284116545503288  -85.53508821264185  112.44589176426375  120.000000
3.8069999999999995  0.000000  0.000000  0.000000  -50.15083790727113  12.099944360956906  120.38421400945056  15.558704360668157  -52.466059190787554  -69.50265458087755  86.2572460881786  19.83379550483873  -73.22630789640787  111.98744393849832  120.000000
3.8539999999999996  0.000000  0.000000  0.000000  -48.978644184393204  10.543570250725478  116.01185822135612  17.688255586827943  -52.22542737715825  -68.7950153936386  77.64563826174958  21.7702038843194  -63.43048539005528  110.65073039892704  120.000000
3.9009999999999994  0.000000  0.000000  0.000000  -47.93688218288724  9.297324277327641  111.17795665357531  20.54271890558349  -52.134232726144255  -66.08227047297238  70.7773234561737  22.73830051940667  -56.24927072023499  108.95244397496043  120.000000
3.9479999999999995  0.000000  0.000000  0.000000  -47.06202575174399  8.28862631840846  106.15924340059689  24.013679327088834  -51.803340370968165  -62.02709471484008  65.60095394695615  23.209012855785296  -51.098317349140615  107.20407258784962  120.000000
3.994999999999999  0.000000  0.000000  0.000000  -46.37989903600623  7.575270984518651  100.97267783923034  27.818441491997135  -51.067150537283844  -57.087873171193195  61.81007224077875  23.770395277458263  -47.634329147781614  105.29906974726  120.000000
4.042  0.000000  0.000000  0.000000  -45.76307121156268  7.107073531033972  95.69076337005785  31.84121767153332  -49.76928868228074  -51.63526822425003  59.25205451980908  24.773352031174433  -45.389054442178974  103.10407256223364  120.000000
4.0889999999999995  0.000000  0.000000  0.000000  -45.191788912489024  6.835753698312086  90.18826350761006  35.86417665765852  -47.837924801781504  -45.95960916867706  57.68989010537112  26.34585265147156  -44.02381459719135  100.45769445594553  120.000000
4.135999999999999  0.000000  0.000000  0.000000  -44.615018125398336  6.620002504284106  84.36707206939477  39.71953433449389  -45.2604177151655  -40.34601771943819  56.828809603060535  28.3206986580064  -43.29865065205454  97.33574190446394  120.000000
4.183  0.000000  0.000000  0.000000  -44.08442446008662  6.363335124469525  78.15633365446446  43.25033148307206  -41.996460736556365  -35.02592015599454  56.37042479602854  30.424948658549052  -43.00139488185891  93.83752430050602  120.000000
4.2299999999999995  0.000000  0.000000  0.000000  -43.58587825901735  6.044052941889871  71.57077300965594  46.34017962459783  -38.12112232107044  -30.114760143132155  56.04625871966637  32.43141929788339  -43.00823867918176  90.12901102839533  120.000000
4.276999999999999  0.000000  0.000000  0.000000  -43.07669449621197  5.681963383241384  64.6986524988918  48.9283670288392  -33.701557479178625  -25.590778992926992  55.688407606687555  34.21237748164759  -43.21044938880514  86.33484651554683  120.000000
